<svg width="16" height="16" viewBox="0 0 16 16" fill="none" xmlns="http://www.w3.org/2000/svg">
<path d="M9.07676 12.7536C9.02089 12.786 8.70617 12.9479 7.99279 12.9479C7.54242 12.9479 7.19176 12.8863 6.95048 12.7651C6.94811 12.7639 6.92817 12.754 6.92561 12.7528C6.77554 12.6821 6.60536 12.7493 6.5327 12.8989C6.46004 13.0482 6.52973 13.2322 6.67801 13.3068C7.00457 13.4711 7.44686 13.5544 7.99279 13.5544C8.81673 13.5544 9.23826 13.3613 9.38142 13.278C9.52614 13.1939 9.57529 13.0083 9.4912 12.8634C9.40711 12.7185 9.22151 12.6687 9.07676 12.7536Z" fill="#6B6B6B"/>
<path d="M9.76423 9.53662C9.4501 9.53662 9.19501 9.89181 9.19501 10.3292C9.19501 10.7657 9.4501 11.1207 9.76423 11.1207C10.0786 11.1207 10.3337 10.7657 10.3337 10.3292C10.3337 9.89181 10.0786 9.53662 9.76423 9.53662Z" fill="#6B6B6B"/>
<path d="M6.14689 9.53662C5.83255 9.53662 5.57745 9.89181 5.57745 10.3292C5.57745 10.7657 5.83255 11.1207 6.14689 11.1207C6.46102 11.1207 6.71611 10.7657 6.71611 10.3292C6.71611 9.89181 6.46102 9.53662 6.14689 9.53662Z" fill="#6B6B6B"/>
<path d="M12.7549 10.5718L12.7551 9.92064H13.196C13.7538 9.92064 14.2018 9.73345 14.4927 9.37845C14.7707 9.03511 14.884 8.68702 14.8607 8.30317H15.1967C15.3642 8.30317 15.5 8.16733 15.5 7.99989V6.2687C15.5 6.10127 15.3642 5.96542 15.1967 5.96542H14.2648L14.1639 4.94739C13.9912 3.19924 12.7909 1.74683 11.1067 1.2477L9.90269 0.890328V0.316953C9.90269 0.149516 9.76684 0.0136719 9.59941 0.0136719H6.41344C6.24641 0.0136719 6.11056 0.149109 6.11016 0.316141L6.10897 0.886953L4.88244 1.25083C3.20475 1.74798 2.00528 3.19367 1.82659 4.93355L1.72016 5.96539H0.803281C0.635844 5.96539 0.5 6.10124 0.5 6.26867V7.99989C0.5 8.16733 0.635844 8.30317 0.803281 8.30317H1.15394C1.16281 8.68127 1.29491 9.05464 1.53459 9.3512C1.84062 9.71845 2.30028 9.92064 2.82862 9.92064H3.25234V10.5718C3.25234 13.1966 4.91759 15.9861 8.00362 15.9861C11.0897 15.9861 12.7549 13.1966 12.7549 10.5718ZM10.9341 1.82898C12.381 2.25823 13.4118 3.50567 13.5603 5.00742L13.6553 5.96542H9.90266V1.52295L10.9341 1.82898ZM9.29613 0.620234V5.96542H6.70469L6.71613 0.620234H9.29613ZM2.43 4.99558C2.58341 3.50133 3.61369 2.25939 5.055 1.83214L6.10756 1.5198L6.09809 5.96545H2.33009L2.43 4.99558ZM1.10656 6.57199H14.8934V7.69661H1.10656V6.57199ZM8.00366 15.3795C5.3115 15.3795 3.85891 12.9024 3.85891 10.5718C3.85891 10.5718 3.87587 9.65248 3.87587 9.61736C3.87587 9.44992 3.74003 9.31408 3.57259 9.31408H2.82866C2.58441 9.31408 2.24266 9.25327 2.00353 8.96617C1.8525 8.77958 1.76819 8.54345 1.76009 8.30314H14.2551C14.2796 8.55133 14.2125 8.76042 14.0223 8.99539C13.8492 9.20705 13.5712 9.31408 13.196 9.31408H12.4517C12.2842 9.31408 12.1484 9.44992 12.1484 9.61736V10.5718C12.1484 12.9024 10.6958 15.3795 8.00366 15.3795Z" fill="#6B6B6B"/>
</svg>
