<svg width="18" height="18" viewBox="0 0 18 18" fill="none" xmlns="http://www.w3.org/2000/svg">
<path d="M5.25 15H12.75" stroke="#8C8C8C" stroke-width="1.3" stroke-linecap="round" stroke-linejoin="round"/>
<path d="M4.5 4.5L9 3.75L13.5 4.5" stroke="#8C8C8C" stroke-width="1.3" stroke-linecap="round" stroke-linejoin="round"/>
<path d="M9 2.25V15" stroke="#8C8C8C" stroke-width="1.3" stroke-linecap="round" stroke-linejoin="round"/>
<path d="M6.75 9L4.5 4.5L2.25 9C2.25 9.59674 2.48705 10.169 2.90901 10.591C3.33097 11.0129 3.90326 11.25 4.5 11.25C5.09674 11.25 5.66903 11.0129 6.09099 10.591C6.51295 10.169 6.75 9.59674 6.75 9Z" stroke="#8C8C8C" stroke-width="1.3" stroke-linecap="round" stroke-linejoin="round"/>
<path d="M15.75 9L13.5 4.5L11.25 9C11.25 9.59674 11.4871 10.169 11.909 10.591C12.331 11.0129 12.9033 11.25 13.5 11.25C14.0967 11.25 14.669 11.0129 15.091 10.591C15.5129 10.169 15.75 9.59674 15.75 9Z" stroke="#8C8C8C" stroke-width="1.3" stroke-linecap="round" stroke-linejoin="round"/>
</svg>
